<svg width="175" height="44" viewBox="0 0 175 44" fill="none" xmlns="http://www.w3.org/2000/svg">
<path d="M76.2756 16.4821C75.6883 15.6756 74.8758 15.0606 73.9402 14.7144C72.9796 14.3288 72.0405 14.136 71.1228 14.136C69.9503 14.136 68.8826 14.3502 67.9232 14.7787C66.9806 15.1945 66.1313 15.7956 65.4259 16.5463C64.7313 17.3161 64.1885 18.2103 63.8262 19.1817C63.4557 20.2345 63.2717 21.3439 63.2822 22.4598C63.2822 23.7025 63.4631 24.838 63.8262 25.8665C64.1609 26.8462 64.6823 27.7517 65.3616 28.5328C66.0462 29.263 66.8745 29.8434 67.7946 30.2373C68.7338 30.6444 69.7896 30.8479 70.9633 30.8479C72.1798 30.8479 73.257 30.6122 74.1961 30.1409C75.1341 29.6481 75.8923 29.0053 76.4684 28.2126L79.7013 30.4944C78.7139 31.7461 77.455 32.7572 76.0197 33.4511C74.5687 34.1367 72.8725 34.4796 70.9311 34.4796C69.1599 34.4796 67.528 34.1903 66.0342 33.6106C64.6138 33.0454 63.3193 32.2048 62.2252 31.1372C61.1495 30.0516 60.3014 28.7624 59.7303 27.3448C59.1328 25.8665 58.834 24.2381 58.834 22.4598C58.834 20.6386 59.1435 18.9996 59.7624 17.5426C60.4028 16.0643 61.267 14.8109 62.3549 13.7812C63.487 12.7395 64.8139 11.9316 66.2591 11.4042C67.753 10.8472 69.3754 10.5686 71.1239 10.5686C71.85 10.5686 72.6071 10.6436 73.3974 10.7936C74.1866 10.9222 74.9448 11.1364 75.6697 11.4363C76.3958 11.7149 77.0779 12.0672 77.7171 12.4957C78.3575 12.9242 78.9014 13.4396 79.3502 14.0395L76.2756 16.4821ZM82.0784 9.60449H85.9195V33.9011H82.0784V9.60449ZM101.396 24.6452C101.396 24.1524 101.322 23.6811 101.172 23.2311C101.05 22.7917 100.831 22.3849 100.532 22.0408C100.216 21.6867 99.8213 21.4118 99.3796 21.2385C98.932 21.0243 98.3987 20.9172 97.7798 20.9172C96.6276 20.9172 95.6455 21.2707 94.8349 21.9765C94.0458 22.6633 93.6089 23.5525 93.5232 24.6452H101.396ZM105.237 26.3807V26.8949C105.237 27.0663 105.226 27.2377 105.205 27.4091H93.5232C93.5661 27.9662 93.7042 28.4804 93.9398 28.9518C94.1946 29.4017 94.5255 29.7969 94.9314 30.1409C95.3361 30.4623 95.7955 30.7194 96.3074 30.9122C96.8192 31.105 97.3525 31.2014 97.9083 31.2014C98.8677 31.2014 99.6783 31.03 100.34 30.6872C100.993 30.3304 101.553 29.8238 101.972 29.2089L104.532 31.2657C103.018 33.3226 100.82 34.351 97.9393 34.351C96.7454 34.351 95.6455 34.1689 94.6421 33.8035C93.6738 33.4386 92.7836 32.8934 92.0187 32.1965C91.2774 31.4883 90.6891 30.6356 90.2903 29.6909C89.8856 28.6839 89.6833 27.5484 89.6833 26.2843C89.6833 25.0416 89.8856 23.9156 90.2903 22.9097C90.7177 21.8813 91.2938 21.0136 92.0187 20.3065C92.7461 19.5769 93.6182 19.0075 94.579 18.6353C95.6066 18.2235 96.7048 18.0161 97.8119 18.0247C98.8784 18.0247 99.8592 18.2068 100.757 18.5711C101.659 18.9034 102.47 19.4428 103.125 20.1458C103.786 20.8315 104.298 21.6992 104.661 22.749C105.045 23.7775 105.237 24.9868 105.237 26.3795V26.3807ZM118.307 31.9394H118.211C117.827 32.6262 117.208 33.194 116.355 33.644C115.501 34.0725 114.53 34.2867 113.442 34.2867C112.823 34.2867 112.173 34.201 111.49 34.0296C110.831 33.8809 110.203 33.62 109.633 33.2583C109.07 32.8639 108.591 32.3614 108.225 31.7799C107.862 31.1586 107.681 30.398 107.681 29.4981C107.681 28.3411 108.001 27.4198 108.641 26.7342C109.303 26.0486 110.146 25.5237 111.17 25.1594C112.193 24.7952 113.324 24.5595 114.562 24.4524C115.785 24.3257 117.013 24.2613 118.242 24.2595V23.8739C118.242 22.9097 117.891 22.2027 117.187 21.7528C116.503 21.2814 115.682 21.0457 114.723 21.0457C113.916 21.0448 113.118 21.2202 112.386 21.5599C111.639 21.9027 111.02 22.3205 110.529 22.8133L108.545 20.4672C109.412 19.6572 110.436 19.0334 111.554 18.6341C112.673 18.2334 113.853 18.0272 115.042 18.0247C116.408 18.0247 117.528 18.2175 118.403 18.6032C119.299 18.9889 120.003 19.4924 120.515 20.1137C121.027 20.735 121.379 21.4314 121.572 22.2027C121.785 22.974 121.892 23.7453 121.892 24.5167V33.9011H118.306V31.9394H118.307ZM118.242 26.8628H117.378C116.759 26.8628 116.109 26.8949 115.426 26.958C114.784 26.9936 114.149 27.1128 113.538 27.3127C112.962 27.4841 112.481 27.7412 112.098 28.084C111.714 28.4054 111.522 28.8553 111.522 29.4338C111.522 29.7981 111.597 30.1087 111.746 30.3658C111.916 30.6015 112.13 30.7944 112.386 30.9443C112.642 31.0943 112.93 31.2014 113.25 31.2657C113.57 31.33 113.891 31.3609 114.21 31.3609C115.533 31.3609 116.536 31.0086 117.219 30.3016C117.902 29.5945 118.242 28.6304 118.242 27.4091V26.8616V26.8628ZM126.366 18.4746H130.047V21.0457H130.111C130.512 20.1764 131.13 19.4243 131.904 18.8603C132.671 18.3032 133.568 18.0247 134.591 18.0247C134.741 18.0247 134.901 18.0354 135.071 18.0568C135.242 18.0568 135.392 18.0783 135.52 18.1211V21.6563C135.298 21.5987 135.073 21.5558 134.847 21.5278C134.677 21.5065 134.507 21.4958 134.335 21.4956C133.461 21.4956 132.756 21.6563 132.223 21.9777C131.725 22.2654 131.299 22.6607 130.975 23.1347C130.69 23.5539 130.484 24.022 130.367 24.5155C130.26 24.988 130.206 25.363 130.206 25.6415V33.9011H126.366V18.4746ZM141.928 9.60449V20.4351H142.025C142.218 20.178 142.463 19.9102 142.762 19.6316C143.059 19.3531 143.412 19.096 143.817 18.8603C144.283 18.6089 144.778 18.4146 145.29 18.2818C145.903 18.1023 146.538 18.0157 147.178 18.0247C148.266 18.0247 149.269 18.239 150.187 18.6675C151.103 19.0746 151.894 19.6423 152.556 20.3696C153.229 21.119 153.751 21.9922 154.091 22.9407C154.46 23.961 154.645 25.0387 154.635 26.1236C154.642 27.2184 154.458 28.306 154.091 29.3374C153.765 30.2956 153.254 31.1803 152.586 31.9406C151.926 32.6848 151.119 33.2863 150.218 33.7082C149.301 34.1367 148.255 34.351 147.081 34.351C146.017 34.3561 144.965 34.1141 144.01 33.644C143.089 33.189 142.32 32.4739 141.801 31.5871H141.737V33.9011H138.088V9.60449H141.93H141.928ZM150.731 26.1236C150.731 25.5237 150.636 24.9333 150.443 24.356C150.281 23.7743 150.009 23.2287 149.643 22.749C149.275 22.274 148.805 21.8893 148.266 21.6242C147.711 21.3242 147.061 21.1743 146.314 21.1743C145.61 21.1743 144.98 21.3242 144.426 21.6242C143.871 21.9242 143.39 22.3098 142.985 22.7812C142.596 23.2614 142.293 23.805 142.089 24.3881C141.9 24.9694 141.803 25.5766 141.801 26.1879C141.801 26.7878 141.896 27.3877 142.089 27.9876C142.303 28.5661 142.601 29.091 142.985 29.5624C143.39 30.0337 143.871 30.4194 144.426 30.7194C144.98 30.9979 145.61 31.136 146.314 31.136C147.061 31.136 147.711 30.9872 148.266 30.6872C148.801 30.4036 149.271 30.0092 149.643 29.5302C150.005 29.0589 150.271 28.5232 150.443 27.9233C150.632 27.3421 150.728 26.7349 150.731 26.1236ZM158.405 18.4746H162.245V33.9011H158.405V18.4746ZM157.86 13.2361C157.86 12.6147 158.083 12.0791 158.531 11.6292C159.001 11.1578 159.588 10.9222 160.293 10.9222C160.995 10.9222 161.583 11.1471 162.052 11.597C162.542 12.0255 162.787 12.5719 162.787 13.2361C162.787 13.9003 162.542 14.4573 162.052 14.9073C161.583 15.3358 160.996 15.55 160.291 15.55C159.588 15.55 159.001 15.3239 158.531 14.8751C158.317 14.6597 158.146 14.4039 158.032 14.1226C157.917 13.8414 157.858 13.5401 157.86 13.2361ZM164.696 21.5599V18.4746H167.386V14.0074H171.161V18.4746H175V21.5599H171.16V28.7256C171.16 29.4124 171.278 29.9802 171.512 30.4301C171.768 30.8801 172.322 31.105 173.176 31.105C173.432 31.105 173.71 31.0836 174.009 31.0408C174.306 30.9765 174.574 30.8908 174.808 30.7836L174.937 33.8047C174.543 33.9458 174.136 34.0428 173.72 34.0939C173.251 34.1796 172.804 34.2225 172.375 34.2225C171.352 34.2225 170.52 34.0832 169.879 33.8047C169.24 33.5047 168.727 33.1083 168.344 32.6143C167.977 32.0918 167.715 31.5027 167.575 30.8801C167.444 30.1807 167.381 29.4705 167.384 28.7589V21.5599H164.694H164.696Z" fill="black" style="fill:black;fill-opacity:1;"/>
<g filter="url(#filter0_f_1_693)">
<path d="M30.8021 41.0449H13.1307L12.4094 41.0392C9.42554 40.9906 8.23868 40.6271 7.04282 39.9849C5.75499 39.2934 4.74428 38.2785 4.05553 36.9854L3.91289 36.7075C3.3392 35.5439 3.02475 34.2597 3.0014 31.2427L3 13.1278C3 9.5905 3.36678 8.3078 4.05553 7.01463C4.74428 5.72147 5.75499 4.70657 7.04282 4.01498L7.31945 3.87175C8.47825 3.29569 9.7572 2.97992 12.7619 2.95648L30.8021 2.95508C34.3247 2.95508 35.6021 3.32338 36.8899 4.01498C38.1779 4.70657 39.1886 5.72147 39.8773 7.01463L40.0199 7.2924C40.5936 8.45601 40.9081 9.74023 40.9314 12.7573L40.9328 30.8722L40.9272 31.5965C40.8788 34.5927 40.5168 35.7846 39.8773 36.9854C39.1886 38.2785 38.1779 39.2934 36.8899 39.9849L36.6133 40.1283C35.4082 40.7273 34.0731 41.0449 30.8021 41.0449Z" fill="#C4D3E0" fill-opacity="0.2" style="fill:#C4D3E0;fill:color(display-p3 0.7686 0.8275 0.8784);fill-opacity:0.2;"/>
</g>
<path d="M40.9325 22V30.8722C40.9325 34.4095 40.5656 35.6921 39.8769 36.9853C39.1882 38.2786 38.1775 39.2934 36.8896 39.985C35.6018 40.6766 34.3244 41.0449 30.8017 41.0449H21.9661V22H40.9325Z" fill="url(#paint0_linear_1_693)" style=""/>
<path d="M21.9661 2.95508H30.8017C34.3244 2.95508 35.6018 3.32338 36.8896 4.01498C38.1775 4.70657 39.1882 5.72146 39.8769 7.01463C40.5656 8.3078 40.9325 9.5905 40.9325 13.1277V21.9999H21.9661V2.95508Z" fill="url(#paint1_linear_1_693)" style=""/>
<path d="M13.1307 2.95508H21.9664V41.0449H13.1307C9.60808 41.0449 8.33067 40.6765 7.04282 39.9849C5.75499 39.2934 4.74428 38.2785 4.05553 36.9854C3.36678 35.6921 3 34.4094 3 30.8722V13.1278C3 9.5905 3.36678 8.3078 4.05553 7.01463C4.74428 5.72147 5.75499 4.70657 7.04282 4.01498C8.33067 3.32338 9.60808 2.95508 13.1307 2.95508Z" fill="url(#paint2_linear_1_693)" style=""/>
<defs>
<filter id="filter0_f_1_693" x="0.28576" y="0.240838" width="43.3613" height="43.5183" filterUnits="userSpaceOnUse" color-interpolation-filters="sRGB">
<feFlood flood-opacity="0" result="BackgroundImageFix"/>
<feBlend mode="normal" in="SourceGraphic" in2="BackgroundImageFix" result="shape"/>
<feGaussianBlur stdDeviation="1.35712" result="effect1_foregroundBlur_1_693"/>
</filter>
<linearGradient id="paint0_linear_1_693" x1="31.4493" y1="22" x2="40.9952" y2="41.0133" gradientUnits="userSpaceOnUse">
<stop stop-color="#DEF2FE" style="stop-color:#DEF2FE;stop-color:color(display-p3 0.8706 0.9490 0.9961);stop-opacity:1;"/>
<stop offset="1" stop-color="#DBF1FE" style="stop-color:#DBF1FE;stop-color:color(display-p3 0.8588 0.9451 0.9961);stop-opacity:1;"/>
</linearGradient>
<linearGradient id="paint1_linear_1_693" x1="21.9661" y1="2.95508" x2="31.5121" y2="21.9684" gradientUnits="userSpaceOnUse">
<stop stop-color="#57BCFD" style="stop-color:#57BCFD;stop-color:color(display-p3 0.3412 0.7373 0.9922);stop-opacity:1;"/>
<stop offset="1" stop-color="#51B5FD" style="stop-color:#51B5FD;stop-color:color(display-p3 0.3176 0.7098 0.9922);stop-opacity:1;"/>
</linearGradient>
<linearGradient id="paint2_linear_1_693" x1="10.1124" y1="2.95508" x2="26.3406" y2="35.2777" gradientUnits="userSpaceOnUse">
<stop stop-color="#1CA7FD" style="stop-color:#1CA7FD;stop-color:color(display-p3 0.1098 0.6549 0.9922);stop-opacity:1;"/>
<stop offset="1" stop-color="#148CFC" style="stop-color:#148CFC;stop-color:color(display-p3 0.0784 0.5490 0.9882);stop-opacity:1;"/>
</linearGradient>
</defs>
</svg>
