<svg width="172" height="46" viewBox="0 0 172 46" fill="none" xmlns="http://www.w3.org/2000/svg">
<g clip-path="url(#clip0_1_688)">
<path d="M44.9648 34.4589V0.854248H50.1859V14.1026C51.83 11.6537 54.2961 10.4288 57.5837 10.4279C60.3881 10.4279 62.5558 11.2579 64.0872 12.9179C65.6185 14.5779 66.3844 16.8908 66.3846 19.8565V34.4589H61.1634V20.5819C61.1634 16.7463 59.4548 14.8283 56.0378 14.8278C54.3289 14.8278 52.9268 15.3436 51.8313 16.3751C50.7361 17.4066 50.1877 18.8572 50.1868 20.7269V34.4586L44.9648 34.4589Z" fill="#323232" style="fill:#323232;fill:color(display-p3 0.1958 0.1958 0.1958);fill-opacity:1;"/>
<path d="M91.0594 31.559C88.7385 33.8799 85.8215 35.0403 82.3079 35.0403C78.7945 35.0403 75.8692 33.8799 73.5318 31.559C71.1947 29.238 70.0262 26.2881 70.0264 22.7092C70.0266 19.1306 71.195 16.1894 73.5318 13.8856C75.8688 11.5814 78.7941 10.429 82.3079 10.4285C85.8217 10.4279 88.7389 11.5803 91.0594 13.8856C93.3806 16.1908 94.5412 19.132 94.541 22.7092C94.5408 26.2866 93.3803 29.2365 91.0594 31.559ZM77.3519 28.6092C78.592 30.0597 80.2441 30.785 82.3079 30.785C84.3719 30.785 86.0238 30.0597 87.2639 28.6092C88.5043 27.1586 89.1248 25.1921 89.1254 22.7092C89.1254 20.2598 88.4969 18.3096 87.2399 16.8588C85.9828 15.408 84.3388 14.6827 82.3079 14.6829C80.2446 14.6829 78.5925 15.4001 77.3519 16.8345C76.1111 18.2689 75.4906 20.2268 75.4902 22.7083C75.4902 25.1921 76.1107 27.159 77.3519 28.6092Z" fill="#323232" style="fill:#323232;fill:color(display-p3 0.1958 0.1958 0.1958);fill-opacity:1;"/>
<path d="M106.628 35.0392C101.824 35.0392 99.4224 32.4604 99.4224 27.3028V15.4083H95.7969V11.0085H99.5683L100.777 4.09546H104.693V11.0085H114.025V15.4083H104.694V27.158C104.694 29.3179 105.483 30.3978 107.063 30.3977C108.545 30.3977 109.883 29.0437 111.076 26.3359L115.138 28.4152C113.139 32.8317 110.302 35.0396 106.628 35.0392Z" fill="#323232" style="fill:#323232;fill:color(display-p3 0.1958 0.1958 0.1958);fill-opacity:1;"/>
<path d="M116.816 45.1935C114.495 45.1935 112.577 44.5488 111.062 43.2593L112.996 39.1495C113.931 40.2449 114.946 40.7931 116.042 40.7942C117.492 40.7942 118.218 39.8595 118.218 37.9898V11.0088H123.439V38.0853C123.439 40.5996 122.818 42.4128 121.577 43.5247C120.336 44.6368 118.749 45.1929 116.816 45.1935ZM120.829 7.04358C119.97 7.07271 119.135 6.75972 118.508 6.17348C118.206 5.88892 117.968 5.54348 117.81 5.16005C117.651 4.77662 117.576 4.36391 117.589 3.94928C117.578 3.53125 117.654 3.11539 117.812 2.72827C117.97 2.34113 118.207 1.9912 118.508 1.70081C119.139 1.12537 119.962 0.806396 120.817 0.806396C121.671 0.806396 122.494 1.12537 123.126 1.70081C123.433 1.98759 123.676 2.33629 123.838 2.72388C124.001 3.11146 124.079 3.52912 124.068 3.94928C124.076 4.36184 123.996 4.77129 123.833 5.15054C123.671 5.52979 123.43 5.87019 123.126 6.1492C122.82 6.44213 122.46 6.67193 122.066 6.8254C121.672 6.97888 121.252 7.05303 120.829 7.04358Z" fill="#323232" style="fill:#323232;fill:color(display-p3 0.1958 0.1958 0.1958);fill-opacity:1;"/>
<path d="M136.407 35.0395C133.731 35.0395 131.564 34.3705 129.904 33.033C128.244 31.6953 127.414 29.8987 127.414 27.6429C127.414 25.58 128.276 23.831 130.001 22.3956C131.725 20.9605 133.893 20.2432 136.504 20.2442C139.18 20.2442 141.436 21.0984 143.273 22.807V19.9538C143.273 18.2782 142.846 16.9808 141.992 16.0615C141.137 15.1423 139.921 14.6829 138.342 14.6834C135.15 14.6834 133.168 16.3112 132.394 19.5667L127.607 18.5515C128.251 16.0373 129.524 14.055 131.427 12.6044C133.33 11.1538 135.699 10.4285 138.535 10.4285C141.63 10.4285 144.071 11.2424 145.86 12.8704C147.649 14.4983 148.543 16.8755 148.544 20.0019V34.4593H143.467V31.5094C141.758 33.863 139.405 35.0399 136.407 35.0395ZM137.373 31.1713C139.694 31.1713 141.661 30.011 143.273 27.6903V26.9642C141.661 25.0302 139.694 24.0631 137.373 24.0633C136.02 24.0633 134.923 24.394 134.084 25.0553C133.687 25.3476 133.366 25.7304 133.148 26.1721C132.929 26.6135 132.819 27.101 132.827 27.5936C132.814 28.0914 132.919 28.5852 133.133 29.0348C133.348 29.4843 133.665 29.8769 134.06 30.1804C134.884 30.8412 135.989 31.1715 137.374 31.1713H137.373Z" fill="#323232" style="fill:#323232;fill:color(display-p3 0.1958 0.1958 0.1958);fill-opacity:1;"/>
<path d="M153.625 34.4595V11.0087H158.702V15.0702C159.991 12.1048 162.215 10.622 165.375 10.6218C167.244 10.6218 168.791 11.2343 170.016 12.4591C171.242 13.684 171.854 15.328 171.853 17.391C171.84 18.6257 171.628 19.8504 171.225 21.0174L166.438 20.534C166.536 19.8931 166.6 19.2475 166.631 18.6C166.631 16.1824 165.632 14.9735 163.634 14.9734C162.279 14.9734 161.143 15.6906 160.225 17.125C159.306 18.5594 158.847 20.4533 158.846 22.8068V34.4595H153.625Z" fill="#323232" style="fill:#323232;fill:color(display-p3 0.1958 0.1958 0.1958);fill-opacity:1;"/>
<path d="M12.3547 14.5962C16.246 12.4344 21.5755 9.47301 21.5755 0.854248H15.1222C15.1222 5.67647 12.7745 6.98071 9.22075 8.95507C5.32947 11.1177 0 14.0778 0 22.6975H6.45331C6.45331 17.8748 8.80098 16.5706 12.3547 14.5962Z" fill="#FF3C00" style="fill:#FF3C00;fill:color(display-p3 1.0000 0.2353 0.0000);fill-opacity:1;"/>
<path d="M23.5245 12.616C23.5245 17.4384 21.1768 18.7427 17.6231 20.7168C13.7328 22.8786 8.40234 25.8396 8.40234 34.459H14.8554C14.8554 29.6366 17.2031 28.3323 20.7568 26.358C24.6481 24.1962 29.9773 21.2356 29.9773 12.616H23.5245Z" fill="#FF3C00" style="fill:#FF3C00;fill:color(display-p3 1.0000 0.2353 0.0000);fill-opacity:1;"/>
</g>
<defs>
<clipPath id="clip0_1_688">
<rect width="172" height="44.3871" fill="white" style="fill:white;fill-opacity:1;" transform="translate(0 0.806396)"/>
</clipPath>
</defs>
</svg>
