<svg width="32" height="32" viewBox="0 0 32 32" fill="none" xmlns="http://www.w3.org/2000/svg">
<rect width="32" height="32" fill="white" style="fill:white;fill-opacity:1;"/>
<path fill-rule="evenodd" clip-rule="evenodd" d="M16 6C21.5228 6 26 10.4772 26 16C26 21.5228 21.5228 26 16 26C10.4771 26 6 21.5228 6 16C6 10.4772 10.4771 6 16 6ZM16 6C19.8108 6 22.9 9.08923 22.9 12.9C22.9 16.7108 19.8108 19.8 16 19.8C12.1892 19.8 9.1 16.7108 9.1 12.9C9.1 9.08923 12.1892 6 16 6ZM19.2 12.9C19.2 11.1327 17.7673 9.7 16 9.7C14.2327 9.7 12.8 11.1327 12.8 12.9C12.8 14.6673 14.2327 16.1 16 16.1C17.7673 16.1 19.2 14.6673 19.2 12.9Z" fill="#022D33" style="fill:#022D33;fill:color(display-p3 0.0078 0.1765 0.2000);fill-opacity:1;"/>
</svg>
