<svg width="172" height="42" viewBox="0 0 172 42" fill="none" xmlns="http://www.w3.org/2000/svg">
<path d="M7.94305 21.6739C7.67076 21.6603 7.39781 21.6787 7.12984 21.729C6.6828 21.8011 6.25459 21.9615 5.87015 22.2007C5.48571 22.44 5.15273 22.7534 4.89062 23.1226C4.6285 23.4919 4.44249 23.9096 4.34342 24.3514C4.24435 24.7933 4.2342 25.2504 4.31357 25.6962C4.5084 27.5348 6.46858 29.0852 8.28318 29.1314C8.46942 29.1361 8.6557 29.1237 8.83968 29.0944C10.8033 28.7765 11.3174 26.7531 10.9937 24.7655C10.6281 22.5214 9.02868 21.7303 7.94305 21.6739ZM9.86711 26.9908C9.78422 27.1149 9.66916 27.2141 9.53424 27.2779C9.39931 27.3417 9.24959 27.3676 9.10108 27.3529C8.84002 27.3322 8.59658 27.2131 8.42006 27.0196C8.24354 26.8262 8.14714 26.5729 8.1504 26.311C8.14586 25.9621 8.21313 25.6159 8.34804 25.2941C8.43229 25.0896 8.44039 24.8617 8.37086 24.6518C8.30134 24.4419 8.15881 24.2639 7.96917 24.1501C7.73615 24.0057 7.45658 23.9562 7.18813 24.0119C6.92813 24.0618 6.69839 24.2124 6.54892 24.4309C6.44802 24.594 6.36926 24.7698 6.31469 24.9537C6.30405 24.9859 6.29561 25.0111 6.2892 25.0276C6.20023 25.2545 6.05825 25.3208 5.96225 25.3085C5.92689 25.302 5.89415 25.2855 5.86792 25.2609C5.84169 25.2364 5.82309 25.2048 5.81433 25.1699C5.76453 24.867 5.78786 24.5566 5.88238 24.2645C5.9769 23.9725 6.13986 23.7073 6.35769 23.491C6.54739 23.3017 6.77781 23.1581 7.03139 23.0713C7.28497 22.9846 7.55501 22.9568 7.82094 22.9902C8.1002 23.0237 8.3671 23.1247 8.59858 23.2845C8.83006 23.4443 9.01916 23.658 9.14956 23.9072C9.27502 24.2072 9.32577 24.5331 9.29745 24.857C9.26912 25.1808 9.16257 25.493 8.98694 25.7666C8.96474 25.8139 8.94441 25.8573 8.92705 25.896C8.86388 26.0032 8.82902 26.1247 8.82574 26.249C8.82246 26.3734 8.85086 26.4966 8.90829 26.6069C8.95882 26.6742 9.02478 26.7284 9.10062 26.7649C9.17646 26.8014 9.25995 26.8191 9.34408 26.8166C9.42439 26.8156 9.50429 26.8049 9.58206 26.7849C9.68292 26.7626 9.78721 26.7396 9.85069 26.8151C9.87175 26.8389 9.8847 26.8687 9.88765 26.9003C9.89061 26.9319 9.88341 26.9636 9.86711 26.9908V26.9908Z" fill="white" style="fill:white;fill-opacity:1;"/>
<path d="M33.0361 30.7614C33.4457 29.7218 33.6826 28.6221 33.7372 27.506C33.7372 26.1338 32.9603 25.5651 32.4656 25.5651C32.4504 25.5121 32.3526 25.1543 32.2178 24.7236C32.1408 24.4738 32.0493 24.2287 31.9439 23.9895C32.3488 23.4302 32.5202 22.7352 32.4217 22.0518C32.3407 21.5249 32.0901 21.0387 31.708 20.6669C30.9827 20.0512 30.1171 19.6231 29.1876 19.4204C29.0475 19.3813 28.5859 19.2547 28.5454 19.2423C28.5422 19.2159 28.5117 17.7307 28.4838 17.0931C28.4719 16.4537 28.3766 15.8186 28.2004 15.2039C27.9814 14.3217 27.5288 13.5149 26.89 12.8682C28.4893 11.2128 29.4876 9.38931 29.4852 7.82499C29.4806 4.81659 25.7807 3.90621 21.2212 5.7916C21.2162 5.79372 20.2619 6.19771 20.2551 6.20118C20.2508 6.19695 18.5085 4.49007 18.4824 4.46712C13.284 -0.0606377 -2.96981 17.9799 2.22684 22.3614L3.36251 23.3221C3.05605 24.1432 2.94785 25.0252 3.04672 25.8961C3.20066 27.1632 3.82697 28.3255 4.80052 29.1509C5.7455 30.0085 6.96637 30.4993 8.24202 30.5345C10.2643 35.1881 14.8847 38.0427 20.3023 38.2034C26.1138 38.3757 30.9921 35.6528 33.0361 30.7614ZM34.2289 25.2543C34.7267 25.8968 34.9829 26.6938 34.9526 27.506C34.9003 28.773 34.6353 30.0221 34.1689 31.2012L34.1578 31.2288C33.1033 33.7646 31.2622 35.8947 28.9057 37.3051C26.453 38.7317 23.6585 39.4644 20.8214 39.4249H20.8208C20.6372 39.4249 20.4507 39.422 20.2663 39.4166C17.4662 39.3581 14.7328 38.5512 12.3497 37.0798C10.2521 35.7653 8.5546 33.9013 7.4415 31.6902C6.1591 31.491 4.96187 30.9246 3.99455 30.0594C2.79188 29.0319 2.02146 27.5883 1.83739 26.0172C1.75536 25.2539 1.79961 24.4823 1.96837 23.7333L1.44114 23.2875C1.01438 22.9189 0.667575 22.4669 0.42206 21.9592C0.176545 21.4516 0.0375198 20.8991 0.0135411 20.3357C-0.0297167 19.1662 0.172395 18.0007 0.606866 16.9141C1.68915 13.9593 4.17889 10.4409 7.2674 7.50209C8.64565 6.16465 10.1746 4.99179 11.8234 4.00708C13.1986 3.12749 14.7781 2.61876 16.4081 2.53037C17.4595 2.50295 18.4835 2.86724 19.2813 3.55249C19.3268 3.59221 20.0094 4.25975 20.5271 4.76688C20.657 4.71206 20.7504 4.67262 20.7532 4.67158C22.2847 4.00447 23.9306 3.63921 25.6006 3.59583C28.6949 3.59583 30.6967 5.25514 30.7006 7.82316C30.703 9.40771 29.9251 11.184 28.4908 12.9036C28.881 13.507 29.1762 14.1667 29.3661 14.8597C29.5698 15.5691 29.6814 16.3018 29.698 17.0397C29.712 17.3572 29.7262 17.8666 29.7377 18.3162C30.7958 18.584 31.7736 19.1033 32.5881 19.8299C33.1403 20.3778 33.5024 21.0881 33.6214 21.8568C33.741 22.6156 33.6238 23.3928 33.2856 24.0825C33.3157 24.1689 33.347 24.2627 33.3782 24.362C33.4053 24.4487 33.4308 24.5323 33.4547 24.6115C33.7526 24.7728 34.0157 24.9912 34.2289 25.2543H34.2289Z" fill="white" style="fill:white;fill-opacity:1;"/>
<path d="M30.5445 23.7519C30.7416 23.5666 30.8953 23.3401 30.9947 23.0886C31.0941 22.837 31.1366 22.5666 31.1192 22.2967C31.0798 22.0246 30.9529 21.7728 30.7576 21.5793C30.1848 21.1038 29.5032 20.7774 28.7736 20.6292C28.4404 20.5347 28.2143 20.4741 27.9707 20.3931C27.5375 20.2489 27.3234 20.1328 27.2749 19.3093C27.2538 18.9492 27.1916 17.6945 27.1693 17.1761C27.1298 16.2676 27.0216 15.0259 26.2596 14.5132C26.0658 14.3847 25.8404 14.3118 25.608 14.3027C25.4779 14.2947 25.3473 14.3076 25.2213 14.341C24.8346 14.4313 24.4826 14.6325 24.2084 14.9198C23.8534 15.2439 23.4349 15.4907 22.9795 15.6444C22.5241 15.7982 22.0416 15.8555 21.5629 15.8128C21.0295 15.7902 20.4644 15.7062 19.8165 15.6674C19.6904 15.6599 19.564 15.6521 19.4378 15.6454C18.6006 15.6701 17.8002 15.9949 17.1826 16.5606C16.5649 17.1263 16.1712 17.8951 16.0732 18.7269C15.7023 21.3069 17.5503 22.6402 18.0838 23.4225C18.1663 23.5224 18.2173 23.6444 18.2306 23.7733C18.2168 23.9162 18.1488 24.0484 18.0407 24.1428L18.0409 24.1436C17.3021 24.9752 16.7834 25.9787 16.5322 27.0624C16.2809 28.146 16.3052 29.2754 16.6027 30.3473C16.6731 30.6047 16.7635 30.8563 16.873 31.0997C18.2214 34.2856 22.4045 35.7692 26.4912 34.4199C27.0266 34.2431 27.546 34.0212 28.0438 33.7567C28.9398 33.3088 29.7458 32.6999 30.4214 31.9603C31.4754 30.8912 32.1677 29.5185 32.4009 28.0354C32.524 27.2143 32.3437 26.8965 32.0982 26.7437C31.9249 26.6462 31.7241 26.6092 31.5274 26.6384C31.4234 25.9938 31.2408 25.3644 30.9837 24.7643L30.5445 23.7519Z" fill="white" style="fill:white;fill-opacity:1;"/>
<path d="M23.8481 11.4477C23.914 11.4628 23.9559 11.3489 23.8969 11.3158C22.9206 10.8099 21.8438 10.5281 20.7448 10.4909C20.7342 10.4908 20.7239 10.4877 20.715 10.482C20.706 10.4764 20.6988 10.4684 20.6942 10.4589C20.6895 10.4494 20.6876 10.4388 20.6885 10.4283C20.6895 10.4178 20.6934 10.4077 20.6997 10.3993C20.8705 10.176 21.07 9.97611 21.2929 9.80482C21.3029 9.79708 21.3101 9.78633 21.3135 9.77417C21.317 9.76201 21.3164 9.74906 21.312 9.73723C21.3075 9.7254 21.2994 9.7153 21.2888 9.70841C21.2782 9.70153 21.2657 9.69821 21.2531 9.69896C19.9075 9.83113 18.6138 10.2872 17.4828 11.0281C17.4732 11.0346 17.4618 11.0381 17.4502 11.0381C17.4385 11.0381 17.4272 11.0345 17.4176 11.028C17.408 11.0214 17.4005 11.0121 17.3963 11.0013C17.392 10.9905 17.3911 10.9786 17.3936 10.9673C17.4847 10.6275 17.6188 10.3008 17.7926 9.99498C17.7983 9.98448 17.8005 9.97242 17.7989 9.96058C17.7972 9.94874 17.7918 9.93773 17.7834 9.92919C17.7751 9.92065 17.7642 9.91502 17.7524 9.91313C17.7406 9.91125 17.7285 9.9132 17.7179 9.91871C16.0846 10.8157 14.629 12.0036 13.4226 13.4237C13.4132 13.4345 13.4081 13.4484 13.4082 13.4627C13.4084 13.4771 13.4138 13.4909 13.4234 13.5015C13.4331 13.5121 13.4463 13.5188 13.4606 13.5203C13.4748 13.5218 13.4891 13.518 13.5008 13.5096C14.8988 12.5327 16.4738 11.8375 18.1377 11.4629C20.0159 11.0297 21.9676 11.0244 23.8481 11.4477" fill="white" style="fill:white;fill-opacity:1;"/>
<path d="M19.0374 6.83878C19.0374 6.83878 17.6225 5.20077 17.1954 5.07995C14.5678 4.37089 8.89167 8.27984 5.26748 13.4443C3.80104 15.5339 1.70181 19.2343 2.7056 21.1375C3.06238 21.5648 3.46457 21.9521 3.90509 22.2924C4.57765 21.3497 5.58985 20.7048 6.72847 20.4937C8.15744 16.4987 10.6658 12.978 13.975 10.3226C15.563 9.023 17.2563 7.85771 19.0374 6.83878Z" fill="white" style="fill:white;fill-opacity:1;"/>
<path d="M9.77225 26.9204C9.79263 26.9451 9.80506 26.9753 9.80791 27.0072C9.81075 27.0391 9.80388 27.0711 9.7882 27.099C9.71193 27.2228 9.60259 27.3228 9.47252 27.3878C9.34245 27.4527 9.19682 27.4801 9.05204 27.4667C8.79402 27.4389 8.55618 27.3142 8.38658 27.1178C8.21698 26.9214 8.12827 26.6679 8.13838 26.4086C8.13401 26.0552 8.19853 25.7043 8.32833 25.3756C8.41027 25.1696 8.41882 24.9417 8.35254 24.7302C8.28627 24.5187 8.1492 24.3364 7.96438 24.214C7.855 24.1416 7.73222 24.0919 7.6033 24.0677C7.47438 24.0436 7.34193 24.0455 7.21377 24.0734C7.08821 24.0999 6.9692 24.1511 6.86374 24.2242C6.75828 24.2973 6.66849 24.3907 6.59967 24.499C6.50232 24.6657 6.42663 24.8441 6.37443 25.0299C6.36436 25.0626 6.35624 25.0883 6.35008 25.1049C6.26455 25.3356 6.12821 25.4028 6.03582 25.3905C5.99215 25.3844 5.93209 25.3552 5.8936 25.2497C5.84528 24.9444 5.86721 24.6322 5.95771 24.3367C6.04821 24.0412 6.2049 23.7702 6.41587 23.5444C6.59305 23.3541 6.81298 23.2088 7.05746 23.1204C7.30195 23.032 7.56397 23.003 7.82186 23.036C8.09506 23.0735 8.35468 23.1782 8.57748 23.3407C8.80028 23.5032 8.9793 23.7185 9.0985 23.9672C9.21923 24.2728 9.26794 24.6021 9.24088 24.9296C9.21381 25.2571 9.11168 25.574 8.94242 25.8556C8.921 25.9035 8.9014 25.9475 8.88488 25.9872C8.82402 26.0972 8.7906 26.2203 8.78745 26.346C8.78431 26.4717 8.81154 26.5963 8.86683 26.7092C8.91357 26.7765 8.97629 26.8312 9.04936 26.8684C9.12242 26.9055 9.20357 26.924 9.28551 26.922C9.36277 26.9209 9.43957 26.9101 9.51411 26.8897C9.61112 26.867 9.71134 26.8437 9.77224 26.9204M33.6852 27.5174C33.631 28.6309 33.3957 29.7281 32.9886 30.766C30.9579 35.647 26.1116 38.3644 20.3383 38.1924C14.9562 38.032 10.3659 35.1833 8.35688 30.5395C7.08859 30.5041 5.87528 30.014 4.93808 29.1588C3.96994 28.3334 3.34791 27.1739 3.1957 25.9109C3.09746 25.0419 3.20493 24.162 3.50943 23.3422L2.38116 22.3835C-2.7814 18.0112 13.3657 0.00861835 18.5303 4.52696C18.5563 4.5497 20.287 6.25315 20.2914 6.25735C20.2983 6.25384 21.2463 5.85059 21.2511 5.84862C25.7808 3.96715 29.4565 4.87559 29.4611 7.87753C29.4635 9.43873 28.4717 11.2584 26.8831 12.9102C27.518 13.5564 27.9675 14.3614 28.1846 15.241C28.3598 15.8546 28.4544 16.4883 28.4663 17.1264C28.4938 17.7626 28.5244 19.2447 28.5274 19.2711C28.5678 19.2833 29.0263 19.4095 29.1653 19.4487C30.0895 19.6514 30.9495 20.0787 31.6693 20.6927C32.0493 21.0643 32.2982 21.5493 32.3784 22.0746C32.4763 22.7563 32.3062 23.4493 31.9038 24.0082C32.0085 24.247 32.0994 24.4916 32.1759 24.7408C32.3096 25.1708 32.4069 25.5275 32.4219 25.5805C32.9133 25.5805 33.6852 26.148 33.6852 27.5174L33.6852 27.5174ZM10.8705 24.839C10.5195 22.5597 8.98232 21.7565 7.93931 21.6992C7.6775 21.6853 7.41497 21.704 7.15778 21.7549C5.29616 22.1316 4.24475 23.72 4.45164 25.784C4.60231 26.7099 5.06077 27.5578 5.75292 28.1909C6.44507 28.824 7.33047 29.2052 8.26603 29.2729C8.44507 29.2777 8.62415 29.2651 8.80076 29.2353C10.6876 28.9125 11.1816 26.8575 10.8705 24.839ZM14.0525 10.3703C15.6294 9.07388 17.3116 7.91103 19.0816 6.89382C19.0816 6.89382 17.6762 5.25931 17.2518 5.13886C14.6414 4.43106 9.00234 8.33187 5.40199 13.4854C3.94518 15.5706 1.85972 19.2634 2.85682 21.1625C3.21104 21.5888 3.61062 21.9752 4.04849 22.315C4.71512 21.3754 5.72097 20.7317 6.85347 20.5202C8.27031 16.5373 10.762 13.0243 14.0525 10.3703ZM19.726 28.407C19.7952 28.7099 19.9449 28.9886 20.1593 29.2134C20.3738 29.4383 20.645 29.601 20.9443 29.6845C21.2556 29.8005 21.5768 29.888 21.904 29.9459C26.0332 30.6583 29.8935 28.2902 30.7627 27.6938C30.8279 27.649 30.8711 27.6926 30.8187 27.7717C30.7925 27.8138 30.7641 27.8544 30.7336 27.8934C29.6699 29.2697 26.8102 30.8635 23.0896 30.8629C21.4669 30.8626 19.845 30.2892 19.2496 29.4081C18.3257 28.041 19.2038 26.0455 20.7432 26.2534C20.745 26.2537 21.27 26.3134 21.4175 26.3298C23.8105 26.56 26.2225 26.1728 28.4233 25.2053C30.5236 24.2274 31.317 23.1511 31.198 22.2799C31.1582 22.0094 31.031 21.7592 30.8359 21.5676C30.2615 21.0949 29.5795 20.7708 28.8502 20.6242C28.5166 20.5303 28.2903 20.4703 28.0464 20.3897C27.6129 20.2465 27.3986 20.1313 27.35 19.3135C27.3289 18.9559 27.2667 17.7101 27.2442 17.1952C27.2046 16.293 27.0965 15.06 26.3336 14.5509C26.1394 14.423 25.9139 14.3507 25.6816 14.3418C25.5513 14.3339 25.4206 14.3467 25.2944 14.3798C24.9079 14.4693 24.5558 14.669 24.2806 14.9547C23.9241 15.2769 23.5048 15.522 23.0491 15.6746C22.5934 15.8272 22.1111 15.8839 21.6324 15.8414C21.0987 15.819 20.533 15.7356 19.8846 15.697C19.7585 15.6896 19.6318 15.6817 19.5054 15.6752C18.6705 15.6971 17.8713 16.0181 17.2532 16.5798C16.6351 17.1414 16.2392 17.9063 16.1377 18.7353C15.7664 21.2973 17.6162 22.6212 18.1502 23.3981C18.2327 23.497 18.2839 23.6183 18.2972 23.7465C18.2831 23.8886 18.2151 24.0199 18.1071 24.1133V24.1142C17.3684 24.9371 16.8493 25.9331 16.5977 27.0099C16.3461 28.0867 16.3701 29.2096 16.6676 30.2746C16.7382 30.5304 16.8287 30.7802 16.9382 31.0219C18.2879 34.1855 22.475 35.6587 26.5655 34.3186C27.1011 34.1433 27.621 33.9231 28.1196 33.6604C29.0154 33.2164 29.822 32.6117 30.4995 31.8764C31.553 30.8176 32.2462 29.4539 32.4808 27.9788C32.6039 27.1633 32.4237 26.8479 32.1779 26.6962C32.0041 26.5993 31.8033 26.5625 31.6065 26.5914C31.5023 25.951 31.3195 25.3259 31.0623 24.7303C29.8941 25.6119 28.5734 26.2707 27.1665 26.6738C25.4737 27.1521 23.7127 27.3431 21.9568 27.2389C20.8271 27.1473 20.0798 26.8165 19.7987 27.7328C21.5074 28.3043 23.3217 28.4894 25.1107 28.2748C25.1233 28.2735 25.136 28.2747 25.1481 28.2784C25.1603 28.282 25.1715 28.288 25.1813 28.296C25.1911 28.304 25.1992 28.3139 25.2052 28.3251C25.2112 28.3362 25.2149 28.3484 25.2161 28.361C25.218 28.3822 25.2133 28.4034 25.2026 28.4218C25.1919 28.4401 25.1758 28.4547 25.1565 28.4635C25.1565 28.4635 23.0583 29.4407 19.726 28.407ZM13.5809 13.55C14.9687 12.5757 16.5336 11.8819 18.1874 11.5078C20.0532 11.0754 21.9925 11.0702 23.8605 11.4925C23.9259 11.5075 23.9676 11.3939 23.9091 11.3611C22.9397 10.8563 21.8697 10.575 20.7774 10.5377C20.7669 10.5375 20.7566 10.5344 20.7477 10.5288C20.7389 10.5231 20.7317 10.5151 20.7271 10.5057C20.7224 10.4962 20.7205 10.4857 20.7215 10.4752C20.7225 10.4647 20.7263 10.4547 20.7326 10.4463C20.9023 10.2236 21.1005 10.0242 21.3221 9.85308C21.332 9.84533 21.3392 9.83461 21.3426 9.82249C21.346 9.81037 21.3455 9.79747 21.3411 9.78567C21.3367 9.77388 21.3286 9.7638 21.318 9.75691C21.3075 9.75002 21.295 9.74667 21.2825 9.74735C19.9449 9.87959 18.6595 10.3348 17.5368 11.0738C17.5272 11.0803 17.5159 11.0838 17.5043 11.0837C17.4927 11.0837 17.4814 11.0802 17.4718 11.0737C17.4623 11.0671 17.4549 11.0578 17.4507 11.0471C17.4465 11.0363 17.4456 11.0245 17.4482 11.0132C17.5386 10.6743 17.6718 10.3482 17.8445 10.0429C17.8502 10.0325 17.8524 10.0205 17.8508 10.0087C17.8492 9.9969 17.8439 9.98592 17.8356 9.97739C17.8273 9.96885 17.8164 9.96321 17.8047 9.96128C17.7929 9.95936 17.7809 9.96126 17.7703 9.9667C16.1467 10.8629 14.7005 12.0483 13.5032 13.4646C13.4938 13.4753 13.4887 13.4891 13.4889 13.5034C13.489 13.5176 13.4944 13.5313 13.504 13.5419C13.5136 13.5524 13.5267 13.5591 13.5409 13.5606C13.5551 13.5621 13.5693 13.5583 13.5809 13.55ZM24.4546 22.2467C24.5677 22.3183 24.7031 22.3457 24.835 22.3238C24.967 22.3019 25.0862 22.2321 25.17 22.1278C25.2742 21.9263 25.123 21.6528 24.8321 21.517C24.7191 21.4455 24.5836 21.4181 24.4517 21.4401C24.3197 21.4621 24.2005 21.5319 24.1167 21.6362C24.0124 21.8376 24.1638 22.1111 24.4546 22.2467ZM25.3467 18.9778C25.4165 19.3407 25.567 19.6833 25.7872 19.9802C26.0147 19.9522 26.2447 19.9522 26.4722 19.9802C26.6051 19.5818 26.6168 19.1529 26.5056 18.7478C26.3412 18.0005 26.1187 17.5482 25.659 17.6186C25.1994 17.689 25.1825 18.2305 25.3467 18.9778ZM26.3247 20.6945C26.2088 20.6612 26.0853 20.6651 25.9717 20.7056C25.8581 20.7461 25.76 20.8212 25.6913 20.9203C25.6226 21.0194 25.5866 21.1376 25.5885 21.2581C25.5903 21.3787 25.6299 21.4957 25.7017 21.5927C25.7735 21.6896 25.8738 21.7616 25.9887 21.7986C26.1035 21.8355 26.227 21.8356 26.3418 21.7988C26.4567 21.7619 26.5571 21.69 26.629 21.5932C26.7009 21.4963 26.7406 21.3794 26.7426 21.2588C26.7592 21.129 26.7251 20.9977 26.6472 20.8925C26.5693 20.7874 26.4537 20.7164 26.3247 20.6945Z" fill="black" style="fill:black;fill-opacity:1;"/>
<path d="M18.6917 20.6277C18.6184 20.6174 18.5872 20.586 18.5779 20.5444C18.5495 20.4155 18.7477 20.2033 18.9567 20.0502C19.2618 19.8271 19.6191 19.6864 19.9942 19.6413C20.3694 19.5963 20.7499 19.6485 21.099 19.793C21.4253 19.9276 21.7058 20.1534 21.907 20.4433C21.9817 20.5652 21.9962 20.6597 21.9479 20.7093C21.8726 20.7887 21.6807 20.6977 21.3682 20.5607C20.9928 20.3765 20.578 20.2871 20.1601 20.3005C19.6649 20.3819 19.1747 20.4912 18.6917 20.6277ZM21.8063 21.2689C21.6713 21.1269 21.5032 21.0207 21.317 20.9597C21.1309 20.8987 20.9325 20.8848 20.7396 20.9192C20.4552 20.9495 20.1858 21.0618 19.9641 21.2425C19.8608 21.3166 19.7898 21.4275 19.7657 21.5523C19.7651 21.5662 19.7676 21.5801 19.773 21.5929C19.7784 21.6057 19.7865 21.6172 19.7968 21.6265C19.8151 21.6432 19.8391 21.6522 19.8638 21.652C19.9661 21.637 20.0661 21.6092 20.1616 21.5694C20.5794 21.412 21.0307 21.3651 21.4719 21.4333C21.6764 21.4563 21.773 21.4691 21.8179 21.3989C21.8294 21.3786 21.8344 21.3553 21.8324 21.3321C21.8303 21.3089 21.8212 21.2868 21.8063 21.2689Z" fill="black" style="fill:black;fill-opacity:1;"/>
<path d="M56.6018 18.9791C54.3564 18.9791 53.2478 20.7529 52.7358 21.8977C52.4536 22.5347 52.373 23.0386 52.1432 23.0386C51.8126 23.0386 52.0505 22.6032 51.7844 21.6277C51.4337 20.3457 50.3775 18.9872 48.1361 18.9872C45.7819 18.9872 44.77 20.9867 44.2943 22.0872C43.9637 22.837 43.9637 23.0466 43.7138 23.0466C43.351 23.0466 43.6533 22.45 43.8146 21.7486C44.0121 20.9464 44.0403 20.1119 43.8952 19.2976H40.1582V33.4154H45.2497V26.401C45.2497 25.0142 45.8302 23.2606 46.8178 23.2606C47.9667 23.2606 48.1884 24.1434 48.1884 25.7761V33.4315H53.3081V26.401C53.3081 25.1674 53.8079 23.2606 54.8802 23.2606C56.0412 23.2606 56.2428 24.5022 56.2428 25.7761V33.4274H61.2738V25.119C61.2778 21.4344 59.9837 18.9794 56.6016 18.9794L56.6018 18.9791Z" fill="black" style="fill:black;fill-opacity:1;"/>
<path d="M143.155 18.9791C140.914 18.9791 139.801 20.7529 139.294 21.8977C139.007 22.5347 138.931 23.0386 138.697 23.0386C138.37 23.0386 138.592 22.4823 138.342 21.6277C137.967 20.3538 137.036 18.9872 134.694 18.9872C132.348 18.9872 131.328 20.9867 130.848 22.0872C130.521 22.837 130.521 23.0466 130.272 23.0466C129.905 23.0466 130.207 22.45 130.372 21.7486C130.57 20.9464 130.594 20.1119 130.449 19.2976H126.712V33.4154H131.807V26.401C131.807 25.0142 132.384 23.2606 133.372 23.2606C134.512 23.2606 134.746 24.1434 134.746 25.7761V33.4315H139.862V26.401C139.862 25.1674 140.366 23.2606 141.438 23.2606C142.587 23.2606 142.8 24.5022 142.8 25.7761V33.4274H147.827V25.119C147.831 21.4344 146.541 18.9794 143.155 18.9794L143.155 18.9791Z" fill="black" style="fill:black;fill-opacity:1;"/>
<path d="M69.9848 18.9832C67.6708 18.9712 65.3811 19.463 63.2727 20.4224V24.6673C63.2727 24.6673 66.3687 22.8774 68.8802 22.8774C70.8837 22.8774 71.1297 23.9659 71.041 24.8608C71.041 24.8608 70.4645 24.7076 68.6989 24.7076C64.5427 24.7076 62.4424 26.6063 62.4424 29.65C62.4424 32.5364 64.8007 33.7416 66.788 33.7416C69.6865 33.7416 70.9604 31.7865 71.3555 30.8552C71.6256 30.2102 71.6739 29.7789 71.9198 29.7789C72.198 29.7789 72.1012 30.0893 72.0851 30.7302C72.0609 31.8549 72.1133 32.7016 72.2867 33.4191H76.1366V26.4773C76.1366 22.1397 74.6127 18.9832 69.9849 18.9832L69.9848 18.9832ZM68.7391 30.1216C67.5177 30.4038 66.8888 30.0249 66.8888 29.2146C66.8888 28.102 68.0377 27.6545 69.6663 27.6545C70.3879 27.6545 71.0652 27.719 71.0652 27.719C71.0692 28.1947 70.0412 29.8194 68.7391 30.1216V30.1216Z" fill="black" style="fill:black;fill-opacity:1;"/>
<path d="M84.5371 15.0289H89.6407V33.4233H84.5371V15.0289Z" fill="black" style="fill:black;fill-opacity:1;"/>
<path d="M95.2527 26.3641C95.2527 25.0942 96.4258 23.9413 98.5785 23.9413C100.929 23.9413 102.815 25.0781 103.239 25.3321V20.422C103.239 20.422 101.747 18.9829 98.0827 18.9829C94.2167 18.9829 90.9998 21.2565 90.9998 26.1464C90.9998 31.0364 93.9183 33.7413 98.0666 33.7413C101.308 33.7413 103.243 31.9514 103.243 31.9514V27.2954C102.63 27.638 100.929 28.8273 98.5987 28.8273C96.1396 28.8273 95.2527 27.6864 95.2527 26.3642V26.3641Z" fill="black" style="fill:black;fill-opacity:1;"/>
<path d="M113.568 18.9832C110.609 18.9832 109.492 21.789 109.266 22.2848C109.037 22.7807 108.924 23.0548 108.738 23.0467C108.412 23.0387 108.642 22.4501 108.771 22.0671C109.262 20.4707 109.508 18.8099 109.508 17.1369C109.508 15.5608 109.295 15.0366 109.295 15.0366H104.893V33.4227H109.988V26.4003C109.988 25.2554 110.444 23.2599 111.73 23.2599C112.794 23.2599 113.124 24.0541 113.124 25.6504V33.4268H118.22V25.9528C118.232 22.3247 117.631 18.9828 113.568 18.9828L113.568 18.9832Z" fill="black" style="fill:black;fill-opacity:1;"/>
<path d="M119.894 19.3219V33.4232H124.989V19.3219C124.989 19.3219 124.13 19.8177 122.441 19.8177C120.756 19.8177 119.894 19.3219 119.894 19.3219H119.894Z" fill="black" style="fill:black;fill-opacity:1;"/>
<path d="M125.549 16.9352C125.549 15.8024 124.15 14.8873 122.425 14.8873C120.703 14.8873 119.305 15.8024 119.305 16.9352C119.305 18.064 120.704 18.9831 122.425 18.9831C124.15 18.9831 125.549 18.064 125.549 16.9352Z" fill="black" style="fill:black;fill-opacity:1;"/>
<path d="M77.7891 19.3219V33.4232H82.8846V19.3219C82.8846 19.3219 82.0259 19.8177 80.3409 19.8177C78.6558 19.8177 77.7891 19.3219 77.7891 19.3219Z" fill="black" style="fill:black;fill-opacity:1;"/>
<path d="M83.4444 16.9352C83.4444 15.8024 82.0455 14.8873 80.3242 14.8873C78.5988 14.8873 77.2041 15.8024 77.2041 16.9352C77.2041 18.064 78.599 18.9831 80.3242 18.9831C82.0456 18.9831 83.4444 18.064 83.4444 16.9352Z" fill="black" style="fill:black;fill-opacity:1;"/>
<path d="M157.964 18.9791C155.344 18.9791 154.142 20.9625 153.622 22.0792C153.276 22.8209 153.292 23.0386 153.042 23.0386C152.679 23.0386 152.981 22.442 153.143 21.7405C153.34 20.9424 153.364 20.1079 153.219 19.2976H149.486V37.3215H154.582V31.6051C155.187 32.6371 156.303 33.7376 158.033 33.7376C161.721 33.7376 163.576 30.5973 163.576 26.3645C163.572 21.5633 161.35 18.9793 157.964 18.9793L157.964 18.9791ZM156.565 30.392C155.396 30.392 154.537 28.9045 154.537 26.8244C154.537 24.8048 155.42 23.2568 156.525 23.2568C157.944 23.2568 158.549 24.5669 158.549 26.8244C158.549 29.1746 157.992 30.392 156.565 30.392Z" fill="black" style="fill:black;fill-opacity:1;"/>
<path d="M54.2545 6.86915C54.8552 6.87319 55.343 6.38137 55.347 5.7807C55.347 5.17601 54.8592 4.6842 54.2586 4.6842C53.6579 4.6842 53.1701 5.17199 53.1701 5.77668C53.1701 6.38137 53.6539 6.86915 54.2545 6.86915ZM45.535 8.97753C45.8534 8.25594 46.708 7.60693 47.7683 7.60693C49.6428 7.60693 50.4209 9.05411 50.4209 10.5296V15.0486H48.6229V11.0415C48.6229 10.1829 48.4294 9.11056 47.2765 9.11056C46.1195 9.11056 45.5955 10.1022 45.5955 11.0697V15.0486H43.7975V7.81653H45.5067V8.97351L45.535 8.97753ZM41.9471 15.0486H40.1572V7.81653H41.9471V15.0486ZM73.9515 5.77668C73.9515 6.38137 73.4677 6.86915 72.8671 6.86915C72.2664 6.86915 71.7826 6.38137 71.7826 5.77668C71.7826 5.17602 72.2664 4.6842 72.8671 4.6842C73.4677 4.6842 73.9515 5.17601 73.9515 5.77668ZM51.3404 9.41283H53.356V15.0485H55.158V9.41283H57.1736V7.8124H51.3404V9.41283ZM61.5717 13.7545C62.7126 13.7545 63.2528 12.7628 63.2528 11.7953V7.81643H65.0507V15.0485H63.3415V13.8915H63.3133C63.0029 14.6171 62.1483 15.2621 61.0799 15.2621C59.2094 15.2621 58.4274 13.8149 58.4274 12.3395V7.81643H60.2253V11.8235C60.2253 12.6902 60.4188 13.7545 61.5718 13.7545H61.5717ZM69.9567 7.80838V9.4088H71.9723V15.0485H73.7703V9.41283H75.7859V7.8124L69.9567 7.80838ZM68.6949 15.0404H66.8929V7.81643H68.6909L68.6949 15.0404Z" fill="black" style="fill:black;fill-opacity:1;"/>
</svg>
