<svg width="121" height="30" viewBox="0 0 121 30" fill="none" xmlns="http://www.w3.org/2000/svg">
<path d="M46.7481 25.2812C45.0606 25.3021 43.5398 25.1042 42.1856 24.6875C40.8419 24.2708 39.6752 23.6354 38.6856 22.7812C37.696 21.9167 36.9356 20.7969 36.4044 19.4219C35.8731 18.0365 35.6075 16.4271 35.6075 14.5938C35.6075 12.7708 35.8679 11.1667 36.3887 9.78125C36.92 8.38542 37.6596 7.26562 38.6075 6.42188C39.5658 5.56771 40.6752 4.93229 41.9356 4.51562C43.2065 4.08854 44.6179 3.875 46.17 3.875C47.7012 3.875 49.0919 4.08854 50.3419 4.51562C51.6023 4.93229 52.7065 5.55729 53.6544 6.39062C54.6023 7.22396 55.3367 8.32292 55.8575 9.6875C56.3887 11.0417 56.6544 12.6042 56.6544 14.375C56.6544 16 56.4356 17.4583 55.9981 18.75C55.5606 20.0312 54.9512 21.0833 54.17 21.9062C53.3992 22.7188 52.4981 23.349 51.4669 23.7969C50.446 24.2448 49.321 24.4948 48.0919 24.5469V24.8125H49.5294C50.571 24.8125 51.4565 24.9062 52.1856 25.0938C52.9148 25.2812 53.519 25.5781 53.9981 25.9844C54.4773 26.401 54.8575 26.8802 55.1387 27.4219C55.4304 27.974 55.6804 28.6615 55.8887 29.4844H51.6387C51.1179 27.1094 49.8367 25.7083 47.795 25.2812L47.42 25.2188L46.7481 25.2812ZM40.2325 11.75C40.0033 12.5833 39.8887 13.5312 39.8887 14.5938C39.8887 15.6562 40.0033 16.6042 40.2325 17.4375C40.4721 18.2708 40.7846 18.9531 41.17 19.4844C41.5658 20.0052 42.0398 20.4375 42.5919 20.7812C43.144 21.125 43.7117 21.3646 44.295 21.5C44.8887 21.6354 45.5242 21.7031 46.2012 21.7031C46.8471 21.7031 47.4512 21.6354 48.0137 21.5C48.5867 21.3646 49.144 21.125 49.6856 20.7812C50.2273 20.4375 50.6856 20.0052 51.0606 19.4844C51.446 18.9531 51.7533 18.2708 51.9825 17.4375C52.2221 16.6042 52.3419 15.6562 52.3419 14.5938C52.3419 13.2708 52.17 12.1302 51.8262 11.1719C51.4825 10.2135 51.0085 9.47396 50.4044 8.95312C49.8106 8.43229 49.1648 8.05729 48.4669 7.82812C47.7794 7.58854 47.0242 7.46875 46.2012 7.46875C45.5242 7.46875 44.8887 7.54167 44.295 7.6875C43.7117 7.82292 43.144 8.0625 42.5919 8.40625C42.0398 8.73958 41.5658 9.17188 41.17 9.70312C40.7846 10.2344 40.4721 10.9167 40.2325 11.75ZM63.7881 25.3125C61.9131 25.3125 60.4496 24.8854 59.3975 24.0312C58.3558 23.1667 57.835 21.9323 57.835 20.3281C57.835 19.526 57.9756 18.8333 58.2569 18.25C58.5381 17.6562 58.9183 17.1979 59.3975 16.875C59.8871 16.5417 60.4392 16.2708 61.0537 16.0625C61.6787 15.8438 62.335 15.6875 63.0225 15.5938C63.71 15.5 64.3975 15.4219 65.085 15.3594C65.7725 15.2865 66.4235 15.2083 67.0381 15.125C67.6631 15.0417 68.2152 14.9271 68.6944 14.7812C69.184 14.6354 69.5694 14.4115 69.8506 14.1094C70.1319 13.7969 70.2725 13.4062 70.2725 12.9375C70.2725 12.125 69.9652 11.4375 69.3506 10.875C68.736 10.3125 67.7621 10.0312 66.4287 10.0312C64.9287 10.0312 63.8298 10.3802 63.1319 11.0781C62.434 11.776 62.085 12.6198 62.085 13.6094H58.2412C58.2412 13.0156 58.3142 12.4427 58.46 11.8906C58.6058 11.3281 58.8715 10.75 59.2569 10.1562C59.6527 9.5625 60.1475 9.04688 60.7412 8.60938C61.3454 8.17188 62.1423 7.8125 63.1319 7.53125C64.1319 7.25 65.2673 7.10938 66.5381 7.10938C69.0798 7.10938 71.0225 7.64062 72.3662 8.70312C73.7204 9.76562 74.3975 11.25 74.3975 13.1562V20.8438C74.3975 21.7188 74.6892 22.1562 75.2725 22.1562C75.6996 22.1562 76.0694 21.9635 76.3819 21.5781V24.6094C76.1631 24.8073 75.8402 24.974 75.4131 25.1094C74.986 25.2448 74.5329 25.3125 74.0537 25.3125C71.7933 25.3125 70.6631 24.1302 70.6631 21.7656V20.0156H70.3975C70.335 20.6927 70.1631 21.3333 69.8819 21.9375C69.611 22.5312 69.2204 23.0885 68.71 23.6094C68.21 24.1302 67.5381 24.5469 66.6944 24.8594C65.8506 25.1615 64.8819 25.3125 63.7881 25.3125ZM62.0537 19.75C62.0537 20.5938 62.3558 21.2396 62.96 21.6875C63.5746 22.125 64.4027 22.3438 65.4444 22.3438C66.9444 22.3438 68.1215 21.8906 68.9756 20.9844C69.8402 20.0781 70.2725 18.9844 70.2725 17.7031V14.6562H70.0225C69.8662 15.0938 69.5954 15.4583 69.21 15.75C68.8246 16.0312 68.3923 16.2448 67.9131 16.3906C67.4444 16.526 66.934 16.6458 66.3819 16.75C65.8402 16.8542 65.3142 16.9688 64.8037 17.0938C64.3037 17.2083 63.8454 17.3594 63.4287 17.5469C63.0121 17.7344 62.6787 18.0156 62.4287 18.3906C62.1787 18.7552 62.0537 19.2083 62.0537 19.75ZM89.3594 14.7344C89.3594 11.8073 88.1615 10.3438 85.7656 10.3438C85.0677 10.3438 84.4479 10.4688 83.9062 10.7188C83.375 10.9583 82.9583 11.2604 82.6562 11.625C82.3646 11.9792 82.125 12.401 81.9375 12.8906C81.75 13.3802 81.625 13.8281 81.5625 14.2344C81.5104 14.6302 81.4844 15.0312 81.4844 15.4375V25H77.3594V7.40625H81V12.8438H81.2812C81.3333 12.3958 81.4115 11.974 81.5156 11.5781C81.6198 11.1719 81.7708 10.7396 81.9688 10.2812C82.1667 9.82292 82.4271 9.41146 82.75 9.04688C83.0729 8.68229 83.4531 8.34896 83.8906 8.04688C84.3281 7.73438 84.8698 7.49479 85.5156 7.32812C86.1615 7.16146 86.875 7.07812 87.6562 7.07812C89.4896 7.07812 90.9219 7.61979 91.9531 8.70312C92.9948 9.78646 93.5156 11.3594 93.5156 13.4219V25H89.3594V14.7344ZM104.181 25.3125C101.431 25.3125 99.2535 24.5417 97.6494 23C96.0556 21.4479 95.2587 19.1823 95.2587 16.2031C95.2587 13.2344 96.0556 10.974 97.6494 9.42188C99.2535 7.85938 101.431 7.07812 104.181 7.07812C106.733 7.07812 108.769 7.72396 110.29 9.01562C111.821 10.2969 112.634 12.2031 112.727 14.7344H108.665C108.571 13.224 108.123 12.0885 107.321 11.3281C106.519 10.5677 105.472 10.1875 104.181 10.1875C102.701 10.1875 101.53 10.6875 100.665 11.6875C99.8108 12.6875 99.3837 14.1927 99.3837 16.2031C99.3837 18.2448 99.8108 19.7552 100.665 20.7344C101.519 21.7031 102.691 22.1875 104.181 22.1875C105.514 22.1875 106.576 21.8177 107.368 21.0781C108.16 20.3385 108.602 19.1615 108.696 17.5469H112.759C112.665 20.0885 111.847 22.0208 110.306 23.3438C108.774 24.6562 106.733 25.3125 104.181 25.3125ZM114.658 25V7.625H118.814V25H114.658ZM114.33 3.23438C114.33 1.86979 115.132 1.1875 116.736 1.1875C118.309 1.1875 119.096 1.86979 119.096 3.23438C119.096 4.57812 118.309 5.25 116.736 5.25C115.132 5.25 114.33 4.57812 114.33 3.23438Z" fill="#022D33" style="fill:#022D33;fill:color(display-p3 0.0078 0.1765 0.2000);fill-opacity:1;"/>
<path fill-rule="evenodd" clip-rule="evenodd" d="M14 0C21.7319 -3.37975e-07 28 6.26801 28 14C28 21.7319 21.7319 28 14 28C6.26801 28 3.37975e-07 21.7319 0 14C-3.37976e-07 6.26801 6.26801 3.37975e-07 14 0ZM14 0C19.3351 -2.33204e-07 23.66 4.32492 23.66 9.66C23.66 14.9951 19.3351 19.32 14 19.32C8.66494 19.32 4.34 14.9951 4.34 9.66C4.34 4.32492 8.66494 2.33204e-07 14 0ZM18.48 9.66C18.48 7.18577 16.4742 5.18 14 5.18C11.5258 5.18 9.52 7.18577 9.52 9.66C9.52 12.1342 11.5258 14.14 14 14.14C16.4742 14.14 18.48 12.1342 18.48 9.66Z" fill="#022D33" style="fill:#022D33;fill:color(display-p3 0.0078 0.1765 0.2000);fill-opacity:1;"/>
</svg>
