<svg width="172" height="40" viewBox="0 0 172 40" fill="none" xmlns="http://www.w3.org/2000/svg">
<g clip-path="url(#clip0_1_689)">
<path fill-rule="evenodd" clip-rule="evenodd" d="M133.826 27.5486C138.259 27.5486 141.865 24.0146 141.865 19.6708C141.865 15.3267 138.259 11.7928 133.826 11.7928C129.394 11.7928 125.788 15.3267 125.788 19.6708C125.788 24.0146 129.394 27.5486 133.826 27.5486ZM141.865 0.0926514H142.083H145.674V31.3074H141.865V28.1907C139.667 30.1871 136.833 31.2808 133.826 31.2808C127.294 31.2808 121.98 26.0724 121.98 19.6708C121.98 13.2686 127.294 8.06054 133.826 8.06054C136.833 8.06054 139.667 9.15402 141.865 11.1506V0.0926514ZM54.8471 27.4111C59.2795 27.4111 62.8856 23.8771 62.8856 19.5332C62.8856 15.1894 59.2795 11.6554 54.8471 11.6554C50.4144 11.6554 46.8083 15.1894 46.8083 19.5332C46.8083 23.8771 50.4144 27.4111 54.8471 27.4111ZM46.8083 11.0134C49.0062 9.01689 51.8409 7.92325 54.8471 7.92325C61.3793 7.92325 66.6939 13.1315 66.6939 19.5332C66.6939 25.935 61.3793 31.1432 54.8471 31.1432C51.8409 31.1432 49.0062 30.0498 46.8083 28.0531V39.1111H43V7.89635H46.8083V11.0134ZM73.9602 17.7205C74.8174 14.1926 78.011 11.6594 81.6538 11.6594C85.2491 11.6594 88.2607 14.1385 89.0634 17.7205H73.9602ZM81.6538 7.89635C75.2193 7.89635 69.9847 13.1477 69.9847 19.6019C69.9847 26.0563 75.2193 31.3074 81.6538 31.3074C85.2571 31.3074 88.5641 29.9542 90.7284 27.5948L91.8528 26.3683L91.9977 26.2101L91.84 26.0641L89.3954 23.8085L89.2377 23.6627L89.092 23.821L87.9676 25.0476C86.5335 26.611 84.1733 27.5446 81.6538 27.5446C78.011 27.5446 74.8175 25.0114 73.9602 21.4833H93.0201V19.6019C93.0201 13.038 88.0274 7.89635 81.6538 7.89635ZM168.191 19.602C168.191 23.9815 164.586 27.5445 160.153 27.5445C155.721 27.5445 152.114 23.9815 152.114 19.602C152.114 15.2223 155.721 11.6592 160.153 11.6592C164.586 11.6592 168.191 15.2223 168.191 19.602ZM160.153 7.89635C153.621 7.89635 148.306 13.1474 148.306 19.602C148.306 26.0563 153.621 31.3074 160.153 31.3074C166.686 31.3074 172 26.0563 172 19.602C172 13.1474 166.686 7.89635 160.153 7.89635ZM107.17 7.89635C104.524 7.89635 102.003 8.90406 100.019 10.7445V7.89635H96.3112V31.3074H100.019V19.3604C100.019 15.098 103.227 11.63 107.17 11.63C111.114 11.63 114.323 15.098 114.323 19.3604V31.3074H118.03V19.3604C118.03 13.0391 113.158 7.89635 107.17 7.89635Z" fill="#1A2022" style="fill:#1A2022;fill:color(display-p3 0.1020 0.1255 0.1333);fill-opacity:1;"/>
<path fill-rule="evenodd" clip-rule="evenodd" d="M0 22.3884H17.9166V39.907L35.8333 22.3884V4.87H17.9166L0 22.3884Z" fill="#FF4876" style="fill:#FF4876;fill:color(display-p3 1.0000 0.2824 0.4627);fill-opacity:1;"/>
</g>
<defs>
<clipPath id="clip0_1_689">
<rect width="172" height="39.8148" fill="white" style="fill:white;fill-opacity:1;" transform="translate(0 0.0926514)"/>
</clipPath>
</defs>
</svg>
