<svg width="172" height="36" viewBox="0 0 172 36" fill="none" xmlns="http://www.w3.org/2000/svg">
<g clip-path="url(#clip0_1_690)">
<path fill-rule="evenodd" clip-rule="evenodd" d="M16.1666 16.394L16.459 16.3123C18.6367 15.6594 20.773 14.8754 22.8563 13.9645C24.9695 13.1349 26.9523 12.0049 28.7437 10.6095C30.6455 9.09521 32.077 7.06982 32.8703 4.77055C33.0414 4.39207 33.167 3.99457 33.2443 3.58643C30.3821 7.49947 19.0356 7.90779 19.0356 7.90779L21.7141 5.45108C13.9189 5.47795 6.32691 7.94296 0 12.5014C4.28523 12.9609 8.31589 14.7639 11.5165 17.653C13.053 17.1766 14.6234 16.8363 16.1666 16.4076V16.394ZM33.9581 16.0061C26.7387 15.6713 19.516 16.5923 12.6111 18.7282C14.0615 20.2432 15.272 21.9713 16.2006 23.8526C21.9181 20.6677 29.8451 16.5982 33.9581 16.0197V16.0061ZM16.9213 25.4791C17.5994 27.2259 18.0341 29.0578 18.213 30.9233L28.1862 20.6677L16.9213 25.4791ZM22.156 30.5082V30.3993C22.1543 30.3554 22.1402 30.3129 22.1152 30.2768C22.0925 30.2427 22.0542 30.2223 22.0133 30.2224H22.1017C22.1559 30.1863 22.1869 30.1241 22.1832 30.059C22.1927 29.9712 22.1427 29.8879 22.0609 29.8549C21.9913 29.8415 21.9197 29.8415 21.8501 29.8549H21.5714V30.6239H21.7209V30.3449H21.8297C21.8766 30.3333 21.9256 30.3333 21.9725 30.3449C22.019 30.3826 22.0422 30.4421 22.0337 30.5014V30.6171H22.1832L22.156 30.5082ZM21.7141 29.9093H21.8093C21.8608 29.8974 21.9142 29.8974 21.9657 29.9093C21.9956 29.9313 22.0112 29.9678 22.0065 30.0046C22.0123 30.0524 21.984 30.0978 21.9385 30.1135C21.898 30.12 21.8567 30.12 21.8161 30.1135H21.7141V29.8549V29.9093Z" fill="#282828" style="fill:#282828;fill:color(display-p3 0.1569 0.1569 0.1569);fill-opacity:1;"/>
<path fill-rule="evenodd" clip-rule="evenodd" d="M22.3392 29.6847C22.2106 29.5472 22.031 29.4692 21.8429 29.4692C21.6548 29.4692 21.4752 29.5472 21.3466 29.6847C21.2135 29.8153 21.1397 29.9949 21.1427 30.1814C21.1397 30.368 21.2135 30.5476 21.3466 30.6782C21.4752 30.8157 21.6548 30.8937 21.8429 30.8937C22.031 30.8937 22.2106 30.8157 22.3392 30.6782C22.4765 30.5496 22.5544 30.3697 22.5544 30.1814C22.5544 29.9932 22.4765 29.8133 22.3392 29.6847ZM21.8429 30.7599C21.6893 30.7619 21.5417 30.7003 21.435 30.5898C21.2139 30.3625 21.2139 30.0004 21.435 29.7731C21.5424 29.6634 21.6894 29.6016 21.8429 29.6016C21.9964 29.6016 22.1434 29.6634 22.2508 29.7731C22.4719 30.0004 22.4719 30.3625 22.2508 30.5898C22.1441 30.7003 21.9965 30.7619 21.8429 30.7599Z" fill="#282828" style="fill:#282828;fill:color(display-p3 0.1569 0.1569 0.1569);fill-opacity:1;"/>
<path fill-rule="evenodd" clip-rule="evenodd" d="M94.5385 21.0149C92.9063 21.0149 91.3981 20.1432 90.582 18.7283C89.7659 17.3133 89.7659 15.57 90.582 14.1551C91.3981 12.7402 92.9063 11.8685 94.5385 11.8685C97.0616 11.8685 99.107 13.916 99.107 16.4417C99.107 18.9674 97.0616 21.0149 94.5385 21.0149ZM94.5385 6.88023C90.5935 6.92697 87.0863 9.40517 85.7212 13.1105C84.3562 16.8158 85.4163 20.9801 88.3864 23.5795C91.3565 26.179 95.6208 26.6747 99.107 24.8258V25.9827C99.1033 28.5069 97.0601 30.5521 94.5385 30.5559C93.1643 30.5559 92.0503 31.671 92.0503 33.0466C92.0503 34.4222 93.1643 35.5374 94.5385 35.5374C99.7869 35.519 104.038 31.2636 104.056 26.0099V16.4825C104.038 11.2288 99.7869 6.97346 94.5385 6.95509V6.88023ZM47.507 21.0149C44.9839 21.0186 42.9355 18.9742 42.9317 16.4485C42.928 13.9228 44.9703 11.8723 47.4934 11.8685C50.0166 11.8648 52.065 13.9092 52.0688 16.4349C52.0725 18.9606 50.0302 21.0111 47.507 21.0149ZM47.507 6.88023C42.2587 6.89861 38.0076 11.154 37.9893 16.4077V30.0183C37.9893 30.9081 38.4635 31.7304 39.2334 32.1753C40.0032 32.6202 40.9517 32.6202 41.7216 32.1753C42.4914 31.7304 42.9657 30.9081 42.9657 30.0183V24.8054C44.364 25.572 45.9332 25.9723 47.5274 25.9691C52.801 25.9691 57.0758 21.6899 57.0758 16.4111C57.0758 11.1322 52.801 6.85301 47.5274 6.85301L47.507 6.88023ZM74.2792 6.88023C69.0308 6.89861 64.7798 11.154 64.7614 16.4077V23.4716C64.7614 24.8472 65.8754 25.9623 67.2497 25.9623C68.6239 25.9623 69.7379 24.8472 69.7379 23.4716V16.4417C69.7379 13.9198 71.7802 11.8753 74.2996 11.8753C76.819 11.8753 78.8614 13.9198 78.8614 16.4417V23.5056C78.8133 24.4253 79.2761 25.2965 80.0647 25.7708C80.8533 26.2451 81.839 26.2451 82.6276 25.7708C83.4163 25.2965 83.8791 24.4253 83.831 23.5056V16.4417C83.8126 11.188 79.5616 6.93263 74.3132 6.91426L74.2792 6.88023ZM135.071 20.9332C132.548 20.9369 130.499 18.8925 130.495 16.3668C130.492 13.8411 132.534 11.7906 135.057 11.7869C137.58 11.7831 139.629 13.8275 139.632 16.3532C139.636 18.8789 137.594 20.9294 135.071 20.9332ZM135.071 6.79857C129.814 6.79857 125.553 11.0641 125.553 16.326C125.553 21.5879 129.814 25.8534 135.071 25.8534C140.327 25.8534 144.588 21.5879 144.588 16.326C144.57 11.0723 140.319 6.81694 135.071 6.79857ZM114.805 21.0149C112.281 21.0149 110.236 18.9674 110.236 16.4417C110.236 13.916 112.281 11.8685 114.805 11.8685C117.328 11.8685 119.373 13.916 119.373 16.4417C119.369 18.9658 117.326 21.0111 114.805 21.0149ZM121.855 0.347137C120.48 0.347137 119.366 1.46228 119.366 2.83788V8.05074C115.604 6.00185 110.937 6.72135 107.965 9.80869C104.993 12.896 104.447 17.5905 106.631 21.2788C108.816 24.967 113.192 26.7402 117.324 25.6113C121.456 24.4823 124.326 20.7294 124.336 16.4417V2.83107C124.336 1.45548 123.222 0.340332 121.848 0.340332L121.855 0.347137ZM60.7164 6.88023C59.3422 6.88023 58.2282 7.99537 58.2282 9.37097V23.4988C58.2282 24.8744 59.3422 25.9895 60.7164 25.9895C62.0906 25.9895 63.2046 24.8744 63.2046 23.4988V9.37778C63.2046 8.00218 62.0906 6.88704 60.7164 6.88704V6.88023ZM58.2282 2.83788C58.2282 4.21348 59.3422 5.32862 60.7164 5.32862C62.0906 5.32862 63.2046 4.21348 63.2046 2.83788C63.2046 1.46228 62.0906 0.347137 60.7164 0.347137C59.3422 0.347137 58.2282 1.46228 58.2282 2.83788ZM158.852 25.9147C159.513 25.9147 160.147 25.6513 160.613 25.1827C161.08 24.7142 161.342 24.0789 161.34 23.4171V12.8281C161.34 12.253 161.805 11.7869 162.38 11.7869C164.9 11.7906 166.942 13.837 166.942 16.36V23.3899C166.942 24.7655 168.056 25.8806 169.43 25.8806C170.804 25.8806 171.918 24.7655 171.918 23.3899V16.36C171.9 11.1063 167.649 6.85097 162.4 6.83259C161.191 6.82941 159.993 7.0605 158.872 7.51312C157.751 7.06067 156.553 6.82958 155.344 6.83259C150.097 6.85505 145.848 11.1077 145.826 16.36V23.3899C145.826 24.7655 146.94 25.8806 148.314 25.8806C149.688 25.8806 150.802 24.7655 150.802 23.3899V16.36C150.802 13.837 152.843 11.7906 155.364 11.7869C155.938 11.7869 156.404 12.253 156.404 12.8281V23.3899C156.402 24.0517 156.664 24.6869 157.13 25.1555C157.597 25.6241 158.231 25.8875 158.892 25.8875L158.852 25.9147Z" fill="#282828" style="fill:#282828;fill:color(display-p3 0.1569 0.1569 0.1569);fill-opacity:1;"/>
</g>
<defs>
<clipPath id="clip0_1_690">
<rect width="172" height="35.3876" fill="white" style="fill:white;fill-opacity:1;" transform="translate(0 0.306274)"/>
</clipPath>
</defs>
</svg>
