<svg width="26" height="26" viewBox="0 0 26 26" fill="none" xmlns="http://www.w3.org/2000/svg">
<path d="M21.6666 23.8334H19.4999V21.6667C19.4999 20.8048 19.1575 19.9781 18.548 19.3686C17.9385 18.7591 17.1119 18.4167 16.2499 18.4167H9.74992C8.88796 18.4167 8.06131 18.7591 7.45182 19.3686C6.84233 19.9781 6.49992 20.8048 6.49992 21.6667V23.8334H4.33325V21.6667C4.33325 20.2301 4.90393 18.8524 5.91976 17.8365C6.93558 16.8207 8.31333 16.25 9.74992 16.25H16.2499C17.6865 16.25 19.0643 16.8207 20.0801 17.8365C21.0959 18.8524 21.6666 20.2301 21.6666 21.6667V23.8334ZM12.9999 14.0834C12.1463 14.0834 11.3011 13.9152 10.5125 13.5886C9.72386 13.2619 9.0073 12.7831 8.40372 12.1796C7.80014 11.576 7.32136 10.8594 6.9947 10.0708C6.66805 9.2822 6.49992 8.43697 6.49992 7.58337C6.49992 6.72978 6.66805 5.88455 6.9947 5.09593C7.32136 4.30732 7.80014 3.59076 8.40372 2.98718C9.0073 2.3836 9.72386 1.90481 10.5125 1.57816C11.3011 1.2515 12.1463 1.08337 12.9999 1.08337C14.7238 1.08337 16.3771 1.76819 17.5961 2.98718C18.8151 4.20617 19.4999 5.85947 19.4999 7.58337C19.4999 9.30728 18.8151 10.9606 17.5961 12.1796C16.3771 13.3986 14.7238 14.0834 12.9999 14.0834ZM12.9999 11.9167C14.1492 11.9167 15.2514 11.4602 16.064 10.6475C16.8767 9.83485 17.3333 8.73265 17.3333 7.58337C17.3333 6.4341 16.8767 5.3319 16.064 4.51924C15.2514 3.70659 14.1492 3.25004 12.9999 3.25004C11.8506 3.25004 10.7484 3.70659 9.93579 4.51924C9.12313 5.3319 8.66658 6.4341 8.66658 7.58337C8.66658 8.73265 9.12313 9.83485 9.93579 10.6475C10.7484 11.4602 11.8506 11.9167 12.9999 11.9167Z" fill="white" style="fill:white;fill-opacity:1;"/>
</svg>
