<svg width="1440" height="1312" viewBox="0 0 1440 1312" fill="none" xmlns="http://www.w3.org/2000/svg">
<path fill-rule="evenodd" clip-rule="evenodd" d="M0 224.8H198H201.6V224.759C285.431 222.846 352.8 154.29 352.8 70V-128H396V73.6C396 157.106 463.694 224.8 547.2 224.8C630.706 224.8 698.4 157.106 698.4 73.6V-128H741.6V73.6C741.6 157.106 809.294 224.8 892.8 224.8C976.306 224.8 1044 157.106 1044 73.6V-128H1094.4V73.6C1094.4 157.106 1162.09 224.8 1245.6 224.8H1440V268H1238.4C1154.89 268 1087.2 335.694 1087.2 419.2C1087.2 502.706 1154.89 570.4 1238.4 570.4H1440V613.6H1238.4C1154.89 613.6 1087.2 681.294 1087.2 764.8C1087.2 848.306 1154.89 916 1238.4 916H1440V959.2H1245.6C1162.09 959.2 1094.4 1026.89 1094.4 1110.4V1117.6V1312H1044V1110.4C1044 1026.89 976.306 959.2 892.8 959.2C809.294 959.2 741.6 1026.89 741.6 1110.4V1312H698.4V1110.4C698.4 1026.89 630.706 959.2 547.2 959.2C463.694 959.2 396 1026.89 396 1110.4V1312H352.8V1114C352.8 1029.71 285.431 961.151 201.6 959.243V959.2H198H0V916H201.6C285.106 916 352.8 848.306 352.8 764.8C352.8 681.294 285.106 613.6 201.6 613.6H0V570.4H201.6C285.106 570.4 352.8 502.706 352.8 419.2C352.8 335.694 285.106 268 201.6 268H0V224.8ZM547.2 570.4C630.706 570.4 698.4 502.706 698.4 419.2C698.4 335.694 630.706 268 547.2 268C463.694 268 396 335.694 396 419.2C396 502.706 463.694 570.4 547.2 570.4ZM892.8 570.4C976.306 570.4 1044 502.706 1044 419.2C1044 335.694 976.306 268 892.8 268C809.294 268 741.6 335.694 741.6 419.2C741.6 502.706 809.294 570.4 892.8 570.4ZM698.4 764.8C698.4 848.306 630.706 916 547.2 916C463.694 916 396 848.306 396 764.8C396 681.294 463.694 613.6 547.2 613.6C630.706 613.6 698.4 681.294 698.4 764.8ZM892.8 916C976.306 916 1044 848.306 1044 764.8C1044 681.294 976.306 613.6 892.8 613.6C809.294 613.6 741.6 681.294 741.6 764.8C741.6 848.306 809.294 916 892.8 916Z" fill="white" fill-opacity="0.4" style="fill:white;fill-opacity:0.4;"/>
</svg>
